<!-- bold -->
<!-- <svg width="72" height="16" viewBox="0 0 72 16" fill="none" xmlns="http://www.w3.org/2000/svg">
<path d="M0.285511 14V3.09091H3.16903V5.01562H3.29688C3.52415 4.37642 3.90294 3.87216 4.43324 3.50284C4.96354 3.13352 5.59801 2.94886 6.33665 2.94886C7.08475 2.94886 7.72159 3.13589 8.24716 3.50994C8.77273 3.87926 9.12311 4.38116 9.2983 5.01562H9.41193C9.63447 4.39062 10.0369 3.8911 10.6193 3.51705C11.2064 3.13826 11.9001 2.94886 12.7003 2.94886C13.7183 2.94886 14.5445 3.2732 15.179 3.92188C15.8182 4.56581 16.1378 5.47964 16.1378 6.66335V14H13.1193V7.25994C13.1193 6.65388 12.9583 6.19934 12.6364 5.89631C12.3144 5.59328 11.9119 5.44176 11.429 5.44176C10.8797 5.44176 10.4512 5.61695 10.1435 5.96733C9.8357 6.31297 9.68182 6.76989 9.68182 7.33807V14H6.74858V7.19602C6.74858 6.66098 6.5947 6.23485 6.28693 5.91761C5.9839 5.60038 5.58381 5.44176 5.08665 5.44176C4.75047 5.44176 4.44744 5.52699 4.17756 5.69744C3.91241 5.86316 3.7017 6.09754 3.54545 6.40057C3.3892 6.69886 3.31108 7.04924 3.31108 7.4517V14H0.285511ZM21.6385 14.206C20.9425 14.206 20.3222 14.0852 19.7777 13.8438C19.2332 13.5975 18.8023 13.2353 18.4851 12.7571C18.1726 12.2741 18.0163 11.6728 18.0163 10.9531C18.0163 10.3471 18.1276 9.83807 18.3501 9.42614C18.5727 9.0142 18.8757 8.68277 19.2592 8.43182C19.6428 8.18087 20.0784 7.99148 20.5661 7.86364C21.0585 7.7358 21.5746 7.64583 22.1143 7.59375C22.7488 7.52746 23.2602 7.46591 23.6484 7.40909C24.0367 7.34754 24.3184 7.25758 24.4936 7.1392C24.6688 7.02083 24.7564 6.84564 24.7564 6.61364V6.57102C24.7564 6.12121 24.6143 5.7732 24.3303 5.52699C24.0509 5.28078 23.6532 5.15767 23.1371 5.15767C22.5926 5.15767 22.1593 5.27841 21.8374 5.51989C21.5154 5.75663 21.3023 6.05492 21.1982 6.41477L18.3999 6.1875C18.5419 5.52462 18.8213 4.9517 19.2379 4.46875C19.6546 3.98106 20.192 3.60701 20.8501 3.34659C21.513 3.08144 22.2801 2.94886 23.1513 2.94886C23.7573 2.94886 24.3374 3.01989 24.8913 3.16193C25.45 3.30398 25.9448 3.52415 26.3757 3.82244C26.8113 4.12074 27.1546 4.50426 27.4055 4.97301C27.6565 5.43703 27.782 5.99337 27.782 6.64205V14H24.9126V12.4872H24.8274C24.6522 12.8281 24.4179 13.1288 24.1243 13.3892C23.8307 13.6449 23.478 13.8461 23.0661 13.9929C22.6541 14.1349 22.1783 14.206 21.6385 14.206ZM22.505 12.1179C22.95 12.1179 23.343 12.0303 23.6839 11.8551C24.0249 11.6752 24.2924 11.4337 24.4865 11.1307C24.6806 10.8277 24.7777 10.4844 24.7777 10.1009V8.94318C24.683 9.00473 24.5528 9.06155 24.3871 9.11364C24.2261 9.16098 24.0438 9.20597 23.8402 9.24858C23.6366 9.28646 23.433 9.32197 23.2294 9.35511C23.0258 9.38352 22.8411 9.40956 22.6754 9.43324C22.3203 9.48532 22.0102 9.56818 21.745 9.68182C21.4799 9.79545 21.2739 9.94934 21.1271 10.1435C20.9804 10.3329 20.907 10.5696 20.907 10.8537C20.907 11.2656 21.0561 11.5805 21.3544 11.7983C21.6574 12.0114 22.041 12.1179 22.505 12.1179Z" fill="white"/>
<path d="M40.6804 15.1776C39.8518 15.1776 39.1013 14.9645 38.429 14.5384C37.7614 14.1075 37.2311 13.4754 36.8381 12.642C36.4498 11.804 36.2557 10.7765 36.2557 9.55966C36.2557 8.30966 36.4569 7.27036 36.8594 6.44176C37.2618 5.60843 37.7969 4.9858 38.4645 4.57386C39.1368 4.1572 39.8731 3.94886 40.6733 3.94886C41.2841 3.94886 41.7931 4.05303 42.2003 4.26136C42.6122 4.46496 42.9437 4.72064 43.1946 5.02841C43.4503 5.33144 43.6444 5.62973 43.777 5.9233H43.8693V0.454545H46.8878V15H43.9048V13.2528H43.777C43.6349 13.5559 43.4337 13.8565 43.1733 14.1548C42.9176 14.4484 42.5838 14.6922 42.1719 14.8864C41.7647 15.0805 41.2675 15.1776 40.6804 15.1776ZM41.6392 12.7699C42.1269 12.7699 42.5388 12.6373 42.875 12.3722C43.2159 12.1023 43.4763 11.7259 43.6562 11.2429C43.8409 10.7599 43.9332 10.1941 43.9332 9.54545C43.9332 8.89678 43.8433 8.33333 43.6634 7.85511C43.4834 7.37689 43.223 7.00758 42.8821 6.74716C42.5412 6.48674 42.1269 6.35653 41.6392 6.35653C41.142 6.35653 40.723 6.49148 40.3821 6.76136C40.0412 7.03125 39.7831 7.4053 39.608 7.88352C39.4328 8.36174 39.3452 8.91572 39.3452 9.54545C39.3452 10.1799 39.4328 10.741 39.608 11.2287C39.7879 11.7116 40.0459 12.0904 40.3821 12.3651C40.723 12.6349 41.142 12.7699 41.6392 12.7699ZM54.3469 15.2131C53.2248 15.2131 52.2589 14.9858 51.4492 14.5312C50.6443 14.072 50.024 13.4233 49.5884 12.5852C49.1528 11.7424 48.935 10.7457 48.935 9.59517C48.935 8.47301 49.1528 7.48816 49.5884 6.64062C50.024 5.79309 50.6372 5.13258 51.4279 4.65909C52.2234 4.18561 53.1561 3.94886 54.2262 3.94886C54.9459 3.94886 55.6159 4.06487 56.2362 4.29688C56.8612 4.52415 57.4057 4.86742 57.8697 5.3267C58.3384 5.78598 58.703 6.36364 58.9634 7.05966C59.2238 7.75095 59.354 8.56061 59.354 9.48864V10.3196H50.1424V8.4446H56.506C56.506 8.009 56.4113 7.62311 56.2219 7.28693C56.0326 6.95076 55.7698 6.68797 55.4336 6.49858C55.1022 6.30445 54.7163 6.20739 54.2759 6.20739C53.8166 6.20739 53.4094 6.31392 53.0543 6.52699C52.704 6.73532 52.4293 7.01705 52.2305 7.37216C52.0316 7.72254 51.9298 8.11316 51.9251 8.54403V10.3267C51.9251 10.8665 52.0245 11.3329 52.2234 11.7259C52.427 12.1188 52.7134 12.4219 53.0827 12.6349C53.4521 12.848 53.89 12.9545 54.3967 12.9545C54.7328 12.9545 55.0406 12.9072 55.32 12.8125C55.5993 12.7178 55.8384 12.5758 56.0373 12.3864C56.2362 12.197 56.3877 11.965 56.4918 11.6903L59.2901 11.875C59.1481 12.5473 58.8569 13.1345 58.4165 13.6364C57.9809 14.1335 57.4175 14.5218 56.7262 14.8011C56.0397 15.0758 55.2466 15.2131 54.3469 15.2131ZM71.206 4.09091L67.392 15H63.983L60.169 4.09091H63.3651L65.6307 11.8963H65.7443L68.0028 4.09091H71.206Z" fill="#C9C9C9"/>
</svg> -->
<!-- semi bold -->
<!-- <svg width="71" height="16" viewBox="0 0 71 16" fill="none" xmlns="http://www.w3.org/2000/svg">
<path d="M0.604226 14V3.09091H3.06161V4.9446H3.18945C3.41673 4.3196 3.79315 3.83191 4.31871 3.48153C4.84428 3.12642 5.47165 2.94886 6.20082 2.94886C6.93945 2.94886 7.56209 3.12879 8.06871 3.48864C8.58008 3.84375 8.93993 4.32907 9.14826 4.9446H9.2619C9.50337 4.33854 9.91057 3.85559 10.4835 3.49574C11.0611 3.13116 11.7453 2.94886 12.536 2.94886C13.5398 2.94886 14.359 3.2661 14.9934 3.90057C15.6279 4.53504 15.9451 5.4607 15.9451 6.67756V14H13.367V7.07528C13.367 6.3982 13.1871 5.90341 12.8272 5.59091C12.4674 5.27367 12.027 5.11506 11.5062 5.11506C10.8859 5.11506 10.4006 5.30919 10.0502 5.69744C9.70461 6.08097 9.53178 6.58049 9.53178 7.19602V14H7.01048V6.96875C7.01048 6.4053 6.84002 5.95549 6.49911 5.61932C6.16294 5.28314 5.7226 5.11506 5.17809 5.11506C4.80877 5.11506 4.4726 5.20975 4.16957 5.39915C3.86654 5.58381 3.62506 5.84659 3.44513 6.1875C3.26521 6.52367 3.17525 6.91667 3.17525 7.36648V14H0.604226ZM21.6926 14.2202C21.0014 14.2202 20.3787 14.0971 19.8248 13.8509C19.2755 13.5999 18.8399 13.2306 18.5179 12.7429C18.2007 12.2552 18.0421 11.6539 18.0421 10.9389C18.0421 10.3234 18.1557 9.81439 18.383 9.41193C18.6103 9.00947 18.9204 8.6875 19.3134 8.44602C19.7064 8.20455 20.1491 8.02225 20.6415 7.89915C21.1387 7.77131 21.6524 7.67898 22.1827 7.62216C22.8219 7.55587 23.3404 7.49669 23.7381 7.4446C24.1358 7.38778 24.4247 7.30256 24.6046 7.18892C24.7892 7.07055 24.8816 6.88826 24.8816 6.64205V6.59943C24.8816 6.06439 24.723 5.65009 24.4057 5.35653C24.0885 5.06297 23.6316 4.91619 23.035 4.91619C22.4052 4.91619 21.9057 5.0535 21.5364 5.32812C21.1718 5.60275 20.9256 5.92708 20.7978 6.30114L18.3972 5.96023C18.5866 5.29735 18.8991 4.74337 19.3347 4.2983C19.7703 3.84848 20.303 3.51231 20.9327 3.28977C21.5624 3.0625 22.2585 2.94886 23.0208 2.94886C23.5463 2.94886 24.0695 3.01042 24.5904 3.13352C25.1112 3.25663 25.5871 3.46023 26.0179 3.74432C26.4488 4.02367 26.7944 4.40483 27.0549 4.88778C27.32 5.37074 27.4526 5.97443 27.4526 6.69886V14H24.981V12.5014H24.8958C24.7395 12.8045 24.5194 13.0885 24.2353 13.3537C23.9559 13.6141 23.6032 13.8248 23.177 13.9858C22.7556 14.142 22.2608 14.2202 21.6926 14.2202ZM22.3603 12.331C22.8764 12.331 23.3238 12.2292 23.7026 12.0256C24.0814 11.8172 24.3726 11.5426 24.5762 11.2017C24.7845 10.8608 24.8887 10.4891 24.8887 10.0866V8.80114C24.8082 8.86742 24.6709 8.92898 24.4767 8.9858C24.2873 9.04261 24.0743 9.09233 23.8375 9.13494C23.6008 9.17756 23.3664 9.21544 23.1344 9.24858C22.9024 9.28172 22.7012 9.31013 22.5307 9.33381C22.1472 9.38589 21.8039 9.47112 21.5009 9.58949C21.1979 9.70786 20.9587 9.87358 20.7836 10.0866C20.6084 10.295 20.5208 10.5649 20.5208 10.8963C20.5208 11.3698 20.6936 11.7273 21.0392 11.9688C21.3849 12.2102 21.8252 12.331 22.3603 12.331Z" fill="white"/>
<path d="M41.0373 15.1918C40.1803 15.1918 39.4132 14.9716 38.7362 14.5312C38.0591 14.0909 37.524 13.4517 37.131 12.6136C36.738 11.7756 36.5415 10.7576 36.5415 9.55966C36.5415 8.34754 36.7404 7.32481 37.1381 6.49148C37.5406 5.65341 38.0827 5.02131 38.7646 4.59517C39.4464 4.1643 40.2063 3.94886 41.0444 3.94886C41.6836 3.94886 42.2092 4.05777 42.6211 4.27557C43.033 4.48864 43.3597 4.74669 43.6012 5.04972C43.8427 5.34801 44.0297 5.62973 44.1623 5.89489H44.2688V0.454545H46.8469V15H44.3185V13.2812H44.1623C44.0297 13.5464 43.838 13.8281 43.587 14.1264C43.3361 14.42 43.0046 14.6709 42.5927 14.8793C42.1808 15.0876 41.6623 15.1918 41.0373 15.1918ZM41.7546 13.0824C42.2991 13.0824 42.7631 12.9356 43.1467 12.642C43.5302 12.3437 43.8214 11.9295 44.0202 11.3991C44.2191 10.8688 44.3185 10.2509 44.3185 9.54545C44.3185 8.83996 44.2191 8.2268 44.0202 7.70597C43.8261 7.18513 43.5373 6.7803 43.1538 6.49148C42.775 6.20265 42.3086 6.05824 41.7546 6.05824C41.1817 6.05824 40.7035 6.20739 40.32 6.50568C39.9364 6.80398 39.6476 7.21591 39.4535 7.74148C39.2594 8.26705 39.1623 8.86837 39.1623 9.54545C39.1623 10.2273 39.2594 10.8357 39.4535 11.3707C39.6523 11.901 39.9435 12.3201 40.3271 12.6278C40.7153 12.9309 41.1912 13.0824 41.7546 13.0824ZM54.4162 15.2131C53.3224 15.2131 52.3778 14.9858 51.5824 14.5312C50.7917 14.072 50.1832 13.4233 49.7571 12.5852C49.331 11.7424 49.1179 10.7505 49.1179 9.60938C49.1179 8.48722 49.331 7.50237 49.7571 6.65483C50.188 5.80256 50.7893 5.13968 51.5611 4.66619C52.3329 4.18797 53.2396 3.94886 54.2812 3.94886C54.9536 3.94886 55.5881 4.05777 56.1847 4.27557C56.786 4.48864 57.3163 4.82008 57.7756 5.26989C58.2396 5.7197 58.6042 6.29261 58.8693 6.98864C59.1345 7.67992 59.267 8.50379 59.267 9.46023V10.2486H50.3253V8.51562H56.8026C56.7978 8.0232 56.6913 7.58523 56.483 7.2017C56.2746 6.81345 55.9834 6.50805 55.6094 6.28551C55.2401 6.06297 54.8092 5.9517 54.3168 5.9517C53.7912 5.9517 53.3295 6.07955 52.9318 6.33523C52.5341 6.58617 52.224 6.91761 52.0014 7.32955C51.7836 7.73674 51.6723 8.18419 51.6676 8.67188V10.1847C51.6676 10.8191 51.7836 11.3636 52.0156 11.8182C52.2476 12.268 52.572 12.6136 52.9886 12.8551C53.4053 13.0919 53.893 13.2102 54.4517 13.2102C54.8258 13.2102 55.1643 13.1581 55.4673 13.054C55.7704 12.9451 56.0331 12.7865 56.2557 12.5781C56.4782 12.3698 56.6463 12.1117 56.7599 11.804L59.1605 12.0739C59.009 12.7083 58.7202 13.2623 58.294 13.7358C57.8726 14.2045 57.3329 14.5691 56.6747 14.8295C56.0166 15.0852 55.2637 15.2131 54.4162 15.2131ZM70.8739 4.09091L66.989 15H64.1481L60.2631 4.09091H63.0046L65.5117 12.1946H65.6254L68.1396 4.09091H70.8739Z" fill="#C9C9C9"/>
</svg> -->
<!-- medium -->
<svg width="71" height="16" viewBox="0 0 71 16" fill="none" xmlns="http://www.w3.org/2000/svg">
<path d="M0.896307 14V3.09091H2.93466V4.86648H3.0696C3.29688 4.26515 3.66856 3.7964 4.18466 3.46023C4.70076 3.11932 5.31866 2.94886 6.03835 2.94886C6.76752 2.94886 7.37831 3.11932 7.87074 3.46023C8.3679 3.80114 8.73485 4.26989 8.97159 4.86648H9.08523C9.34564 4.28409 9.75994 3.82008 10.3281 3.47443C10.8963 3.12405 11.5734 2.94886 12.3594 2.94886C13.349 2.94886 14.1562 3.259 14.7812 3.87926C15.411 4.49953 15.7259 5.43466 15.7259 6.68466V14H13.6023V6.88352C13.6023 6.14489 13.401 5.60985 12.9986 5.27841C12.5961 4.94697 12.1155 4.78125 11.5568 4.78125C10.8655 4.78125 10.3281 4.99432 9.9446 5.42045C9.56108 5.84186 9.36932 6.384 9.36932 7.04688V14H7.25284V6.74858C7.25284 6.15672 7.06818 5.68087 6.69886 5.32102C6.32955 4.96117 5.84896 4.78125 5.2571 4.78125C4.85464 4.78125 4.48295 4.88778 4.14205 5.10085C3.80587 5.30919 3.53362 5.60038 3.32528 5.97443C3.12169 6.34848 3.01989 6.78172 3.01989 7.27415V14H0.896307ZM21.7468 14.2415C21.0555 14.2415 20.4305 14.1136 19.8718 13.858C19.3131 13.5975 18.8704 13.2211 18.5437 12.7287C18.2217 12.2363 18.0607 11.6326 18.0607 10.9176C18.0607 10.3021 18.1791 9.79545 18.4158 9.39773C18.6526 9 18.9722 8.68513 19.3746 8.45312C19.7771 8.22112 20.2269 8.04593 20.7241 7.92756C21.2212 7.80919 21.7279 7.71922 22.244 7.65767C22.8974 7.58191 23.4277 7.52036 23.8349 7.47301C24.2421 7.42093 24.538 7.33807 24.7227 7.22443C24.9073 7.1108 24.9996 6.92614 24.9996 6.67045V6.62074C24.9996 6.00047 24.8245 5.51989 24.4741 5.17898C24.1284 4.83807 23.6123 4.66761 22.9258 4.66761C22.2108 4.66761 21.6474 4.82623 21.2354 5.14347C20.8282 5.45597 20.5465 5.80398 20.3903 6.1875L18.3945 5.73295C18.6313 5.07008 18.9769 4.53504 19.4315 4.12784C19.8907 3.71591 20.4187 3.41761 21.0153 3.23295C21.6119 3.04356 22.2392 2.94886 22.8974 2.94886C23.333 2.94886 23.7946 3.00095 24.2823 3.10511C24.7747 3.20455 25.234 3.3892 25.6602 3.65909C26.091 3.92898 26.4438 4.31487 26.7184 4.81676C26.993 5.31392 27.1303 5.96023 27.1303 6.75568V14H25.0565V12.5085H24.9712C24.8339 12.7831 24.628 13.053 24.3533 13.3182C24.0787 13.5833 23.726 13.8035 23.2951 13.9787C22.8642 14.1539 22.3481 14.2415 21.7468 14.2415ZM22.2085 12.5369C22.7956 12.5369 23.2975 12.4209 23.7141 12.1889C24.1355 11.9569 24.4551 11.6539 24.6729 11.2798C24.8955 10.901 25.0067 10.4962 25.0067 10.0653V8.65909C24.931 8.73485 24.7842 8.80587 24.5664 8.87216C24.3533 8.93371 24.1095 8.98816 23.8349 9.03551C23.5603 9.07812 23.2927 9.11837 23.0323 9.15625C22.7719 9.18939 22.5541 9.2178 22.3789 9.24148C21.967 9.29356 21.5906 9.38116 21.2496 9.50426C20.9135 9.62737 20.6436 9.80492 20.44 10.0369C20.2411 10.2642 20.1417 10.5672 20.1417 10.946C20.1417 11.4716 20.3358 11.8693 20.7241 12.1392C21.1123 12.4044 21.6071 12.5369 22.2085 12.5369Z" fill="white"/>
<path d="M41.3746 15.2131C40.494 15.2131 39.708 14.9882 39.0167 14.5384C38.3301 14.0838 37.7904 13.4375 37.3974 12.5994C37.0091 11.7566 36.815 10.7457 36.815 9.56676C36.815 8.38778 37.0115 7.37926 37.4045 6.54119C37.8022 5.70312 38.3467 5.06155 39.038 4.61648C39.7293 4.1714 40.5129 3.94886 41.3888 3.94886C42.0659 3.94886 42.6104 4.0625 43.0224 4.28977C43.439 4.51231 43.761 4.77273 43.9883 5.07102C44.2203 5.36932 44.4002 5.6321 44.5281 5.85938H44.6559V0.454545H46.7795V15H44.7056V13.3026H44.5281C44.4002 13.5346 44.2156 13.7997 43.9741 14.098C43.7373 14.3963 43.4106 14.6567 42.994 14.8793C42.5773 15.1018 42.0375 15.2131 41.3746 15.2131ZM41.8434 13.402C42.4542 13.402 42.9703 13.241 43.3917 12.919C43.8178 12.5923 44.1398 12.1402 44.3576 11.5625C44.5801 10.9848 44.6914 10.3125 44.6914 9.54545C44.6914 8.78788 44.5825 8.125 44.3647 7.55682C44.1469 6.98864 43.8273 6.54593 43.4059 6.22869C42.9845 5.91146 42.4637 5.75284 41.8434 5.75284C41.2042 5.75284 40.6715 5.91856 40.2454 6.25C39.8192 6.58144 39.4973 7.03362 39.2795 7.60653C39.0664 8.17945 38.9599 8.82576 38.9599 9.54545C38.9599 10.2746 39.0688 10.9304 39.2866 11.5128C39.5044 12.0952 39.8263 12.5568 40.2525 12.8977C40.6834 13.2339 41.2137 13.402 41.8434 13.402ZM54.5121 15.2202C53.4373 15.2202 52.5116 14.9905 51.7351 14.5312C50.9633 14.0672 50.3667 13.4162 49.9453 12.5781C49.5286 11.7353 49.3203 10.7481 49.3203 9.61648C49.3203 8.49905 49.5286 7.5142 49.9453 6.66193C50.3667 5.80966 50.9538 5.14441 51.7067 4.66619C52.4643 4.18797 53.3497 3.94886 54.3629 3.94886C54.9785 3.94886 55.575 4.05066 56.1527 4.25426C56.7304 4.45786 57.2488 4.77746 57.7081 5.21307C58.1674 5.64867 58.5296 6.21449 58.7947 6.91051C59.0599 7.6018 59.1925 8.44223 59.1925 9.43182V10.1847H50.5206V8.59375H57.1115C57.1115 8.03504 56.9979 7.54025 56.7706 7.10938C56.5433 6.67377 56.2237 6.33049 55.8118 6.07955C55.4046 5.8286 54.9264 5.70312 54.3771 5.70312C53.7805 5.70312 53.2597 5.84991 52.8146 6.14347C52.3743 6.43229 52.0334 6.81108 51.7919 7.27983C51.5552 7.74384 51.4368 8.24811 51.4368 8.79261V10.0355C51.4368 10.7647 51.5646 11.3849 51.8203 11.8963C52.0807 12.4077 52.4429 12.7983 52.907 13.0682C53.371 13.3333 53.9131 13.4659 54.5334 13.4659C54.9358 13.4659 55.3028 13.4091 55.6342 13.2955C55.9657 13.1771 56.2521 13.0019 56.4936 12.7699C56.7351 12.5379 56.9197 12.2514 57.0476 11.9105L59.0575 12.2727C58.8965 12.8646 58.6077 13.383 58.1911 13.8281C57.7791 14.2685 57.2607 14.6117 56.6357 14.858C56.0154 15.0994 55.3075 15.2202 54.5121 15.2202ZM70.5685 4.09091L66.6126 15H64.3398L60.3768 4.09091H62.6566L65.4194 12.4858H65.533L68.2887 4.09091H70.5685Z" fill="#C9C9C9"/>
</svg>


